<?xml version="1.0" standalone="no"?><!DOCTYPE svg PUBLIC "-//W3C//DTD SVG 1.1//EN" "http://www.w3.org/Graphics/SVG/1.1/DTD/svg11.dtd"><svg t="1565441078371" class="icon" viewBox="0 0 1056 1024" version="1.1" xmlns="http://www.w3.org/2000/svg" p-id="7762" xmlns:xlink="http://www.w3.org/1999/xlink" width="206.25" height="200"><defs><style type="text/css"></style></defs><path d="M895.168 767.776h-640l-192-544h841.6c70.4 0 128 57.6 128 128 0 16-3.2 28.8-6.4 41.6l-131.2 374.4z m-595.2-64h550.4l115.2-329.6c3.2-6.4 3.2-12.8 3.2-22.4 0-35.2-28.8-64-64-64h-748.8l144 416zM335.168 1023.776c-60.8 0-112-51.2-112-112s51.2-112 112-112 112 51.2 112 112-48 112-112 112z m0-160c-25.6 0-48 22.4-48 48s22.4 48 48 48 48-22.4 48-48-19.2-48-48-48zM815.168 1023.776c-60.8 0-112-51.2-112-112s51.2-112 112-112 112 51.2 112 112-48 112-112 112z m0-160c-25.6 0-48 22.4-48 48s22.4 48 48 48 48-22.4 48-48-19.2-48-48-48z" p-id="7763"></path><path d="M69.568 50.976l76.8 211.2-60.8 22.4-76.8-211.2c-6.4-16 3.2-35.2 19.2-41.6 16-6.4 35.2 3.2 41.6 19.2z" p-id="7764"></path></svg>