<?xml version="1.0" standalone="no"?><!DOCTYPE svg PUBLIC "-//W3C//DTD SVG 1.1//EN" "http://www.w3.org/Graphics/SVG/1.1/DTD/svg11.dtd"><svg t="1565434579483" class="icon" viewBox="0 0 1024 1024" version="1.1" xmlns="http://www.w3.org/2000/svg" p-id="4542" xmlns:xlink="http://www.w3.org/1999/xlink" width="200" height="200"><defs><style type="text/css"></style></defs><path d="M512.011 95.333c229.747 0 416.657 186.91 416.657 416.667s-186.91 416.667-416.657 416.667c-229.767 0-416.677-186.91-416.677-416.667S282.244 95.333 512.011 95.333m0-83.333C235.867 12 12 235.836 12 512c0 276.123 223.867 500 500.01 500C788.133 1012 1012 788.123 1012 512c0-276.164-223.867-500-499.989-500z" p-id="4543"></path><path d="M449.653 619.259c-5.208-14.099-7.813-28.646-7.813-43.619 0-36.662 17.354-69.662 52.083-98.959 21.484-18.229 36.021-33.406 43.619-45.572 7.59-12.146 11.395-25.269 11.395-39.389 0-15.4-5.433-28.035-16.277-37.923-10.854-9.867-24.851-14.812-41.992-14.812-40.151 0-77.474 15.422-111.979 46.225V284.298c36.234-21.688 77.474-32.552 123.698-32.552 46.875 0 83.873 10.864 111.003 32.552 27.119 21.709 40.689 52.633 40.689 92.773 0 24.089-5.32 45.898-15.951 65.43-10.64 19.531-30.171 40.914-58.594 64.128-22.785 19.104-36.895 33.977-42.316 44.597-5.433 10.641-8.139 21.932-8.139 33.854 0 11.719 2.93 23.112 8.789 34.18h-88.215z m-13.346 97.006c0-16.053 6.073-29.338 18.229-39.877 12.146-10.518 26.906-15.787 44.271-15.787 16.703 0 31.088 5.27 43.131 15.787 12.045 10.539 18.066 23.824 18.066 39.877 0 15.849-5.645 29.134-16.926 39.876-11.292 10.742-24.852 16.113-40.691 16.113-20.182 0-36.245-5.534-48.177-16.602-11.942-11.067-17.903-24.19-17.903-39.387z" p-id="4544"></path></svg>