<?xml version="1.0" standalone="no"?><!DOCTYPE svg PUBLIC "-//W3C//DTD SVG 1.1//EN" "http://www.w3.org/Graphics/SVG/1.1/DTD/svg11.dtd"><svg t="1565434556025" class="icon" viewBox="0 0 1024 1024" version="1.1" xmlns="http://www.w3.org/2000/svg" p-id="4348" xmlns:xlink="http://www.w3.org/1999/xlink" width="200" height="200"><defs><style type="text/css"></style></defs><path d="M247.6032 983.04A63.8976 63.8976 0 0 1 184.32 907.9808l43.7248-254.6688a12.6976 12.6976 0 0 0-3.6864-11.264L39.8336 461.6192a63.7952 63.7952 0 0 1 35.328-108.7488l256-37.1712a12.8 12.8 0 0 0 9.6256-6.9632L454.8608 77.0048a63.6928 63.6928 0 0 1 114.2784 0l114.3808 231.7312a12.8 12.8 0 0 0 9.6256 6.9632l256 37.1712a63.6928 63.6928 0 0 1 35.328 108.7488L798.72 641.9456a12.6976 12.6976 0 0 0-3.6864 11.264L839.68 907.9808a63.7952 63.7952 0 0 1-92.16 67.1744L517.9392 854.9376a12.8 12.8 0 0 0-11.8784 0L277.2992 975.1552a63.7952 63.7952 0 0 1-29.696 7.8848zM512 92.16a12.3904 12.3904 0 0 0-11.4688 7.0656L386.1504 331.264A63.7952 63.7952 0 0 1 337.92 366.1824L81.92 403.3536a12.8 12.8 0 0 0-7.0656 21.7088l185.6512 180.4288a63.6928 63.6928 0 0 1 18.3296 56.4224L235.52 916.5824a12.3904 12.3904 0 0 0 5.12 12.4928 12.288 12.288 0 0 0 13.4144 0.9216L482.304 809.7792a63.6928 63.6928 0 0 1 59.2896 0l228.864 120.2176a12.288 12.288 0 0 0 13.4144-0.9216 12.3904 12.3904 0 0 0 5.12-12.4928l-43.7248-254.6688a63.6928 63.6928 0 0 1 18.3296-56.4224l185.0368-180.4288a12.6976 12.6976 0 0 0-7.0656-21.7088L686.08 366.1824a63.7952 63.7952 0 0 1-48.0256-34.9184L523.4688 99.5328A12.3904 12.3904 0 0 0 512 92.16z" fill="" p-id="4349"></path></svg>