<?xml version="1.0" standalone="no"?><!DOCTYPE svg PUBLIC "-//W3C//DTD SVG 1.1//EN" "http://www.w3.org/Graphics/SVG/1.1/DTD/svg11.dtd"><svg t="1565758820592" class="icon" viewBox="0 0 1024 1024" version="1.1" xmlns="http://www.w3.org/2000/svg" p-id="6125" xmlns:xlink="http://www.w3.org/1999/xlink" width="200" height="200"><defs><style type="text/css"></style></defs><path d="M638.722555 353.351537h-63.872256v63.851816h63.872256v-63.851816z m63.872255 63.851816H766.467066v-63.851816h-63.872256v63.851816z m127.744511 0h63.872256v-63.851816h-63.872256v63.851816z m63.872256-191.596327H574.850299v63.851816H894.211577v-63.851816zM159.670419 513.021956h319.381717A31.917733 31.917733 0 0 0 510.978044 481.096048c0-61.521756-14.511776-116.646068-38.773014-147.488703a31.927952 31.927952 0 1 0-50.198483 39.467944c7.542036 9.585948 19.274092 34.991776 23.50499 76.074412H193.211018c4.230898-41.082635 15.962954-66.488463 23.50499-76.074412a31.927952 31.927952 0 1 0-50.198483-39.467944C142.256287 364.44998 127.744511 419.574291 127.744511 481.096048A31.917733 31.917733 0 0 0 159.670419 513.021956z m159.690858-159.670419c57.597445 0 95.798164-76.891976 95.798164-127.744511a95.798164 95.798164 0 1 0-191.596327 0c0 50.852535 38.200719 127.744511 95.798163 127.744511z m0-159.690858a31.964743 31.964743 0 0 1 31.946348 31.946347c0 26.182515-21.726786 62.461956-31.844152 63.851816-10.321756-1.38986-32.048543-37.669301-32.048543-63.851816a31.964743 31.964743 0 0 1 31.946347-31.946347zM934.783234 2.043912H87.172854A87.27505 87.27505 0 0 0 0 89.216766V745.210379a87.27505 87.27505 0 0 0 87.172854 87.172855h847.61038A87.27505 87.27505 0 0 0 1021.956088 745.210379V89.216766A87.27505 87.27505 0 0 0 934.783234 2.043912zM87.172854 65.916168h847.61038a23.31695 23.31695 0 0 1 23.300598 23.300598v487.677446H63.872255V89.216766a23.31695 23.31695 0 0 1 23.300599-23.300598zM934.783234 768.510978H87.172854a23.31695 23.31695 0 0 1-23.300599-23.300599v-104.443912h894.211577v104.443912a23.31695 23.31695 0 0 1-23.300598 23.300599z m-455.731098-31.925908h63.851816v-63.892695h-63.851816v63.892695zM766.467066 960.127745h-55.206068c-10.199122-7.991697-40.612535-39.32487-40.612535-127.744511h-63.851816c0 58.333253 11.261956 99.191058 25.569341 127.744511H389.5901c14.307385-28.553453 25.569341-69.411257 25.569341-127.744511h-63.851816c0 96.186507-29.922874 119.139641-40.939561 127.744511H255.489022a31.936128 31.936128 0 0 0 0 63.872255h510.978044a31.936128 31.936128 0 0 0 0-63.872255z" p-id="6126"></path></svg>