<?xml version="1.0" standalone="no"?><!DOCTYPE svg PUBLIC "-//W3C//DTD SVG 1.1//EN" "http://www.w3.org/Graphics/SVG/1.1/DTD/svg11.dtd"><svg t="1565441044004" class="icon" viewBox="0 0 1024 1024" version="1.1" xmlns="http://www.w3.org/2000/svg" p-id="6115" xmlns:xlink="http://www.w3.org/1999/xlink" width="200" height="200"><defs><style type="text/css"></style></defs><path d="M782.1 213h-97.3V81c0-5.2-2.5-10-6.7-13s-9.6-3.8-14.5-2.1L236.6 214c-0.1 0-0.3 0.1-0.4 0.2-0.3 0.1-0.5 0.2-0.8 0.3-0.2 0.1-0.4 0.2-0.7 0.3-0.2 0.1-0.4 0.2-0.7 0.3-0.3 0.2-0.5 0.3-0.8 0.5-0.1 0.1-0.3 0.2-0.4 0.3-0.8 0.6-1.6 1.2-2.3 1.9-0.1 0.1-0.2 0.2-0.2 0.3-0.3 0.3-0.5 0.5-0.7 0.8-0.1 0.1-0.2 0.3-0.3 0.4-0.2 0.2-0.4 0.5-0.5 0.7-0.1 0.2-0.2 0.4-0.4 0.6-0.1 0.2-0.3 0.4-0.4 0.7l-0.3 0.6c-0.1 0.2-0.2 0.4-0.3 0.7-0.1 0.2-0.2 0.5-0.3 0.7-0.1 0.2-0.2 0.5-0.3 0.7-0.1 0.2-0.2 0.5-0.2 0.7-0.1 0.3-0.1 0.6-0.2 0.8 0 0.2-0.1 0.4-0.1 0.6-0.2 1-0.3 2-0.3 3v714.1c0 8.8 7.2 16 16 16h540.3c8.8 0 16-7.2 16-16V229c-0.2-8.8-7.3-16-16.2-16zM652.8 103.4V213h-316l316-109.6zM766.1 927H257.9V245h508.3v682z" fill="#418CFE" p-id="6116"></path><path d="M313 620.2V518.6h30.7l18.4 69.3 18.2-69.3h30.8v101.6H392v-80l-20.2 80H352l-20.1-80v80H313zM431.6 620.2V518.6H507v17.2h-54.8v22.5h51v17.1h-51v27.7H509v17.1h-77.4zM526.5 620.2V518.6h20l41.6 67.9v-67.9h19.1v101.6h-20.6l-41-66.3v66.3h-19.1zM628.7 518.6h20.5v55.1c0 8.7 0.3 14.4 0.8 17 0.9 4.2 3 7.5 6.3 10s7.8 3.8 13.6 3.8 10.2-1.2 13.2-3.6c3-2.4 4.7-5.3 5.3-8.8 0.6-3.5 0.9-9.2 0.9-17.3v-56.2h20.5V572c0 12.2-0.6 20.8-1.7 25.9-1.1 5-3.2 9.3-6.1 12.8-3 3.5-7 6.2-12 8.3-5 2.1-11.5 3.1-19.6 3.1-9.7 0-17.1-1.1-22.1-3.4-5-2.2-9-5.2-11.9-8.7s-4.8-7.3-5.8-11.3c-1.3-5.8-2-14.4-2-25.8v-54.3z" fill="#0DE28B" p-id="6117"></path></svg>