<?xml version="1.0" standalone="no"?><!DOCTYPE svg PUBLIC "-//W3C//DTD SVG 1.1//EN" "http://www.w3.org/Graphics/SVG/1.1/DTD/svg11.dtd"><svg t="1565441061802" class="icon" viewBox="0 0 1024 1024" version="1.1" xmlns="http://www.w3.org/2000/svg" p-id="6918" xmlns:xlink="http://www.w3.org/1999/xlink" width="200" height="200"><defs><style type="text/css"></style></defs><path d="M429 221.5h166c22.8 0 41.5-18.7 41.5-41.5v-41.5c0-22.8-18.7-41.5-41.5-41.5H429c-22.8 0-41.5 18.7-41.5 41.5V180c0 22.8 18.7 41.5 41.5 41.5zM740.3 346H283.7c-11.5 0-20.8 9.3-20.8 20.8s9.3 20.8 20.8 20.8h456.5c11.5 0 20.8-9.3 20.8-20.8s-9.3-20.8-20.7-20.8zM740.3 532.7H283.7c-11.5 0-20.8 9.3-20.8 20.8s9.3 20.8 20.8 20.8h456.5c11.5 0 20.8-9.3 20.8-20.8s-9.3-20.8-20.7-20.8zM740.3 719.5H283.7c-11.5 0-20.8 9.3-20.8 20.8s9.3 20.8 20.8 20.8h456.5c11.5 0 20.8-9.3 20.8-20.8s-9.3-20.8-20.7-20.8z" p-id="6919"></path><path d="M802.5 138.5h-62.3c-11.5 0-20.8 9.3-20.8 20.8s9.3 20.8 20.8 20.8h62.3c45.8 0 83 37.2 83 83v539.5c0 45.8-37.2 83-83 83h-581c-45.8 0-83-37.2-83-83V263c0-45.8 37.2-83 83-83h62.3c11.5 0 20.8-9.3 20.8-20.8s-9.3-20.8-20.8-20.8h-62.3C153 138.5 97 194.5 97 263v539.5C97 871 153 927 221.5 927h581C871 927 927 871 927 802.5V263c0-68.5-56-124.5-124.5-124.5z" p-id="6920"></path></svg>