<?xml version="1.0" standalone="no"?><!DOCTYPE svg PUBLIC "-//W3C//DTD SVG 1.1//EN" "http://www.w3.org/Graphics/SVG/1.1/DTD/svg11.dtd"><svg t="1565434332581" class="icon" viewBox="0 0 1329 1024" version="1.1" xmlns="http://www.w3.org/2000/svg" p-id="1825" xmlns:xlink="http://www.w3.org/1999/xlink" width="259.5703125" height="200"><defs><style type="text/css"></style></defs><path d="M1204.14781 14.461937l-1079.600005 0C55.826239 14.461937 0 74.185236 0 147.772046l0 729.786552c0 73.586811 55.708256 133.305244 124.547806 133.305244L1204.14781 1010.863842c68.721567 0 124.547806-59.718434 124.547806-133.305244l0-729.786552C1328.695616 74.185236 1272.869377 14.461937 1204.14781 14.461937L1204.14781 14.461937 1204.14781 14.461937 1204.14781 14.461937zM1272.137158 877.558598c0 31.135127-25.542529 73.462747-56.919702 73.462747L113.725071 951.021345c-31.50002 0-56.924567-42.328836-56.924567-73.462747L56.800504 147.647983c0-31.139992 25.542529-71.396235 56.924567-71.396235l1101.493601 0c31.50002 0 56.919702 40.256243 56.919702 71.396235L1272.138374 877.558598 1272.137158 877.558598 1272.137158 877.558598 1272.137158 877.558598zM1078.017584 293.605293l-225.01752 0c-12.529219 0-22.743798 9.364378-22.743798 21.043395l0 17.270399c0 11.679017 10.214579 21.043395 22.743798 21.043395l225.01752 0c12.647201 0 22.743798-9.364378 22.743798-21.043395l0-17.270399C1100.761382 302.969671 1090.546803 293.605293 1078.017584 293.605293L1078.017584 293.605293 1078.017584 293.605293 1078.017584 293.605293zM1078.017584 484.082015l-225.01752 0c-12.529219 0-22.743798 9.364378-22.743798 21.037314l0 15.085904c0 11.674152 10.214579 21.043395 22.743798 21.043395l225.01752 0c12.647201 0 22.743798-9.369243 22.743798-21.043395l0-15.085904C1100.761382 493.446393 1090.546803 484.082015 1078.017584 484.082015L1078.017584 484.082015 1078.017584 484.082015 1078.017584 484.082015zM1078.017584 671.877989l-225.01752 0c-12.529219 0-22.743798 9.488441-22.743798 21.043395l0 13.74553c0 11.674152 10.214579 21.03853 22.743798 21.03853l225.01752 0c12.647201 0 22.743798-9.364378 22.743798-21.03853l0-13.74553C1100.761382 681.36643 1090.546803 671.877989 1078.017584 671.877989L1078.017584 671.877989 1078.017584 671.877989 1078.017584 671.877989zM434.589108 324.745285c56.558458 0 102.536227 45.971688 102.536227 102.530145 0 27.366996-13.627548 55.224165-37.463593 76.509606-20.06913 18.002618-28.217197 45.853705-20.43524 71.638281 7.781957 25.666593 29.557572 44.519412 56.074366 48.168345 2.308558 0.36611 29.799618 5.10729 55.218083 18.002618 11.797 5.957491 20.919332 12.647201 26.392731 19.214064 4.865244 5.839509 5.839509 10.338643 5.839509 15.32795l0 26.75884L246.302961 702.895134l0-26.634777c0-5.112155 0-18.733621 31.990193-34.788925 25.300483-12.771265 52.543415-17.270399 54.851974-17.636508 26.75884-3.524869 48.534455-22.259706 56.558458-48.044281 8.030085-25.784575-0.117982-53.88379-20.311176-71.886408-23.836045-21.285441-37.463593-49.136529-37.463593-76.503524C332.052881 370.841036 378.03065 324.745285 434.589108 324.745285M432.522596 271.345587c-89.038825 0-161.161197 72.128454-161.161197 161.161197 0 47.802235 23.718063 90.739227 56.800504 120.296799 0 0-137.325152 19.336911-137.325152 113.47816l0 60.696348c0 13.863512 11.194926 25.053572 25.058438 25.053572l433.248733 0c13.869593 0 25.058438-11.188844 25.058438-25.053572l0-60.696348c0-93.166984-137.325152-113.47816-137.325152-113.47816 33.088522-29.557572 56.806585-72.494563 56.806585-120.296799C593.683792 343.474041 521.555339 271.345587 432.522596 271.345587L432.522596 271.345587 432.522596 271.345587 432.522596 271.345587 432.522596 271.345587zM432.522596 271.345587" p-id="1826" fill="#8a8a8a"></path></svg>