<?xml version="1.0" standalone="no"?><!DOCTYPE svg PUBLIC "-//W3C//DTD SVG 1.1//EN" "http://www.w3.org/Graphics/SVG/1.1/DTD/svg11.dtd"><svg t="1565434488519" class="icon" viewBox="0 0 1024 1024" version="1.1" xmlns="http://www.w3.org/2000/svg" p-id="3782" xmlns:xlink="http://www.w3.org/1999/xlink" width="200" height="200"><defs><style type="text/css"></style></defs><path d="M64.383234 202.111234l0 158.055729 0 64.156359c9.333525-3.425597 19.377309-5.289645 29.841118-5.289645 1.182403 0 2.357653 0.031681 3.529836 0.078691 0.203369 0.008176 0.406739 0.014307 0.609086 0.023505 1.121086 0.053142 2.237062 0.127745 3.346906 0.223808 0.215633 0.018395 0.430244 0.039856 0.644854 0.059273 1.133349 0.106283 2.262611 0.227896 3.383697 0.377102 0.086866 0.011242 0.172711 0.025549 0.259577 0.037812 1.084295 0.148184 2.160415 0.31885 3.232447 0.505868 0.170667 0.029637 0.342355 0.05723 0.512 0.087888 1.084295 0.197238 2.161437 0.415936 3.232447 0.65303 0.212567 0.04701 0.425134 0.096064 0.637701 0.144096 1.075098 0.246291 2.144064 0.508934 3.204854 0.795082 0.133876 0.035768 0.266731 0.075625 0.399585 0.112415 1.024 0.28206 2.041868 0.581493 3.051561 0.900343 0.123657 0.038834 0.249357 0.075625 0.373014 0.115481 1.044439 0.33418 2.078659 0.691864 3.105725 1.064878 34.935569 12.66919 60.001086 47.184735 60.001086 87.786028 0 40.602315-25.066539 75.118882-60.004152 87.78705-1.026044 0.371992-2.05822 0.728655-3.100615 1.062834-0.125701 0.039856-0.252423 0.077669-0.379146 0.117525-1.008671 0.317828-2.023473 0.617261-3.046451 0.899321-0.133876 0.03679-0.266731 0.076647-0.400607 0.112415-1.059768 0.286148-2.129756 0.54879-3.204854 0.795082-0.212567 0.049054-0.425134 0.097086-0.637701 0.144096-1.07101 0.237094-2.148152 0.456814-3.232447 0.65303-0.170667 0.030659-0.341333 0.058251-0.512 0.087888-1.07101 0.18804-2.148152 0.358707-3.232447 0.505868-0.086866 0.012263-0.172711 0.026571-0.259577 0.037812-1.121086 0.149206-2.249325 0.27184-3.383697 0.377102-0.214611 0.020439-0.430244 0.040878-0.644854 0.059273-1.109844 0.095042-2.22582 0.170667-3.346906 0.223808-0.202347 0.009198-0.405717 0.016351-0.609086 0.023505-1.171162 0.04701-2.346411 0.078691-3.529836 0.078691-10.463808 0-20.507593-1.864048-29.841118-5.289645l0 64.156359 0 158.055729 895.233533 0L959.616766 663.832016l0-64.156359c-9.333525 3.425597-19.377309 5.289645-29.841118 5.289645-1.182403 0-2.357653-0.031681-3.529836-0.078691-0.203369-0.008176-0.406739-0.014307-0.609086-0.023505-1.121086-0.053142-2.23604-0.127745-3.345884-0.223808-0.215633-0.018395-0.430244-0.039856-0.644854-0.059273-1.133349-0.106283-2.262611-0.227896-3.382675-0.377102-0.086866-0.011242-0.173733-0.025549-0.260599-0.037812-1.083273-0.148184-2.160415-0.31885-3.231425-0.505868-0.170667-0.029637-0.342355-0.05723-0.513022-0.087888-1.084295-0.197238-2.161437-0.415936-3.232447-0.65303-0.213589-0.04701-0.426156-0.096064-0.638723-0.144096-1.075098-0.246291-2.144064-0.508934-3.203832-0.795082-0.134898-0.03679-0.267752-0.075625-0.401629-0.113437-1.021956-0.281038-2.036758-0.580471-3.044407-0.898299-0.126723-0.039856-0.254467-0.076647-0.380168-0.117525-1.042395-0.33418-2.074571-0.690842-3.099593-1.062834C865.319856 587.118882 840.252295 552.602315 840.252295 512c0-40.601293 25.065517-75.116838 60.002108-87.786028 1.027066-0.371992 2.060263-0.729677 3.104703-1.063856 0.124679-0.039856 0.249357-0.076647 0.374036-0.115481 1.008671-0.317828 2.025517-0.618283 3.049517-0.899321 0.133876-0.03679 0.267752-0.076647 0.401629-0.112415 1.059768-0.286148 2.128735-0.54879 3.203832-0.795082 0.212567-0.049054 0.425134-0.097086 0.638723-0.144096 1.07101-0.237094 2.14713-0.456814 3.232447-0.65303 0.170667-0.030659 0.342355-0.058251 0.513022-0.087888 1.07101-0.18804 2.14713-0.358707 3.231425-0.505868 0.086866-0.012263 0.173733-0.026571 0.260599-0.037812 1.121086-0.149206 2.249325-0.27184 3.382675-0.377102 0.214611-0.020439 0.430244-0.040878 0.644854-0.059273 1.109844-0.095042 2.224798-0.170667 3.345884-0.223808 0.202347-0.009198 0.406739-0.015329 0.609086-0.023505 1.171162-0.04701 2.346411-0.078691 3.529836-0.078691 10.463808 0 20.507593 1.864048 29.841118 5.289645l0-64.156359 0-158.055729L64.383234 202.114299zM899.934531 360.157764C831.830355 374.514204 780.57006 437.039521 780.57006 512s51.260295 137.485796 119.364471 151.842236l0 96.068982L661.205589 759.911218l0-47.670164 0-30.988774-59.682236 0 0 30.988774 0 47.670164L124.065469 759.911218 124.065469 663.842236c68.104176-14.356439 119.364471-76.881756 119.364471-151.842236s-51.260295-137.485796-119.364471-151.842236l0-96.068982 477.457884 0 0 45.29616 0 30.988774L661.205589 340.373717l0-30.988774 0-45.29616 238.728942 0L899.934531 360.157764z" p-id="3783"></path><path d="M601.523353 557.29616 601.523353 619.273709 601.523353 650.262483 661.205589 650.262483 661.205589 619.273709 661.205589 557.29616 661.205589 526.307385 601.523353 526.307385Z" p-id="3784"></path><path d="M601.523353 402.352287 601.523353 464.329836 601.523353 495.318611 661.205589 495.318611 661.205589 464.329836 661.205589 402.352287 661.205589 371.363513 601.523353 371.363513Z" p-id="3785"></path></svg>