<?xml version="1.0" standalone="no"?><!DOCTYPE svg PUBLIC "-//W3C//DTD SVG 1.1//EN" "http://www.w3.org/Graphics/SVG/1.1/DTD/svg11.dtd"><svg t="1565434460388" class="icon" viewBox="0 0 1024 1024" version="1.1" xmlns="http://www.w3.org/2000/svg" p-id="3648" xmlns:xlink="http://www.w3.org/1999/xlink" width="200" height="200"><defs><style type="text/css"></style></defs><path d="M896.7 438.1l22.3-0.7V264.9H104.9v173.9l23.7-0.7c0.8 0 1.6-0.1 2.5-0.1 0.4 0 1-0.1 1.2-0.1 57.1 0 103.6 38.3 103.6 85.3s-46.5 85.3-103.6 85.3c-0.2 0-0.8 0-1.2-0.1-0.8 0-1.6-0.1-2.5-0.1l-23.7-0.7v151.5H919V609l-22.3-0.7c-56-1.6-99.9-39-99.9-85.2s43.9-83.4 99.9-85zM794.3 615.7c21.6 19.1 49 31.7 78.8 36.5v60.9H150.9v-59.6c32.3-3.5 62.2-16.1 85.8-36.3 29.1-24.9 45.1-58.3 45.1-94.1s-16-69.2-45.1-94.1c-23.6-20.2-53.5-32.8-85.8-36.3v-82H873V394c-29.7 4.8-57.1 17.4-78.8 36.5-28 24.7-43.4 57.6-43.4 92.5s15.5 68 43.5 92.7z" p-id="3649"></path><path d="M362 485.5h46V545h-46zM362 604.6h46v59.5h-46zM362 366.5h46V426h-46zM654.4 423.4l-26.8-26.9-43.3 43.3-43.2-43.3-26.9 26.9 37.7 37.7h-54.7v38h68.1v37.2h-68.1v38h68.1v57.1h38v-57.1h68.1v-38h-68.1v-37.2h68.1v-38h-54.7z" p-id="3650"></path></svg>